<?xml version="1.0"?>
<svg xmlns="http://www.w3.org/2000/svg" height="512px" viewBox="0 -30 512 512" width="512px"><g><path d="m293.648438 346.351562v7.53125h15.058593v-7.53125h30.117188v-60.234374h7.527343v-15.058594h-7.527343v-67.765625h-338.824219v7.53125c0 20.757812 16.886719 37.644531 37.648438 37.644531h15.058593v7.980469c-17.046875 2.71875-30.117187 17.515625-30.117187 35.316406v3.765625c0 17.796875 13.070312 32.597656 30.117187 35.3125v7.980469h95.078125l3.835938 7.527343zm-277.300782-128h307.417969v112.941407h-162.917969l-42.191406-82.824219h190.050781v-15.058594h-271.058593c-9.816407 0-18.191407-6.292968-21.300782-15.058594zm21.300782 77.179688v-3.765625c0-9.457031 6.378906-17.4375 15.058593-19.902344v43.570313c-8.679687-2.46875-15.058593-10.445313-15.058593-19.902344zm30.117187 28.234375v-75.296875h33.992187l38.355469 75.296875zm0 0" data-original="#000000" class="active-path" data-old_color="#000000" fill="#1C8B00"/><path d="m293.648438 301.175781h15.058593v15.058594h-15.058593zm0 0" data-original="#000000" class="active-path" data-old_color="#000000" fill="#1C8B00"/><path d="m263.53125 301.175781h15.058594v15.058594h-15.058594zm0 0" data-original="#000000" class="active-path" data-old_color="#000000" fill="#1C8B00"/><path d="m233.410156 301.175781h15.058594v15.058594h-15.058594zm0 0" data-original="#000000" class="active-path" data-old_color="#000000" fill="#1C8B00"/><path d="m496.941406 331.292969v15.058593h-7.53125v15.058594h7.53125v22.589844h-188.234375v-15.058594h-15.058593v30.117188h203.292968v22.589844h-7.53125v15.058593h7.53125v15.058594h15.058594v-120.472656zm0 0" data-original="#000000" class="active-path" data-old_color="#000000" fill="#1C8B00"/><path d="m402.824219 308.707031h-15.058594c-14.53125 0-26.355469 11.820313-26.355469 26.351563s11.824219 26.351562 26.355469 26.351562h86.585937v-15.058594h-86.585937c-6.226563 0-11.296875-5.066406-11.296875-11.292968 0-6.226563 5.070312-11.292969 11.296875-11.292969h15.058594c14.53125 0 26.351562-11.824219 26.351562-26.355469 0-14.527344-11.820312-26.351562-26.351562-26.351562h-41.414063v15.058594h41.414063c6.226562 0 11.292969 5.066406 11.292969 11.292968 0 6.230469-5.066407 11.296875-11.292969 11.296875zm0 0" data-original="#000000" class="active-path" data-old_color="#000000" fill="#1C8B00"/><path d="m256 188.234375h15.058594v-82.824219h-30.117188v-4.066406l100.667969-86.285156h1.957031l100.667969 86.285156v4.066406h-30.117187v128h-60.234376v15.058594h90.351563v-15.058594h-15.058594v-112.941406h30.117188v-26.050781l-110.15625-94.417969h-13.097657l-110.15625 94.417969v26.050781h30.117188zm0 0" data-original="#000000" class="active-path" data-old_color="#000000" fill="#1C8B00"/><path d="m335.058594 165.648438h15.058594v15.058593h-15.058594zm0 0" data-original="#000000" class="active-path" data-old_color="#000000" fill="#1C8B00"/><path d="m308.707031 105.410156h67.761719v15.058594h-67.761719zm0 0" data-original="#000000" class="active-path" data-old_color="#000000" fill="#1C8B00"/><path d="m293.648438 75.292969h97.882812v15.058593h-97.882812zm0 0" data-original="#000000" class="active-path" data-old_color="#000000" fill="#1C8B00"/><path d="m323.765625 135.53125h37.644531v15.058594h-37.644531zm0 0" data-original="#000000" class="active-path" data-old_color="#000000" fill="#1C8B00"/></g> </svg>
